<?xml version="1.0" encoding="utf-8"?>
<!-- Generator: Adobe Illustrator 25.2.1, SVG Export Plug-In . SVG Version: 6.00 Build 0)  -->
<svg version="1.1" xmlns="http://www.w3.org/2000/svg" xmlns:xlink="http://www.w3.org/1999/xlink" x="0px" y="0px"
	 viewBox="0 0 500 500" style="enable-background:new 0 0 500 500;" xml:space="preserve">
<style type="text/css">
	.st0{fill:#CC89E5;}
	.st1{fill:none;stroke:#370972;stroke-width:0.25;stroke-miterlimit:10;}
	.st2{fill:#86593E;}
	.st3{fill:#B58E67;}
	.st4{fill:#FFB84F;}
	.st5{fill:#FFD788;}
	.st6{fill:#7927C1;}
	.st7{fill:#EFEBDF;}
	.st8{fill:#5F281C;}
	.st9{fill:#FFFFFF;}
	.st10{fill:#B14330;}
	.st11{fill:#422E2D;}
	.st12{fill:none;stroke:#422E2D;stroke-miterlimit:10;}
	.st13{fill:#9A2532;}
	.st14{fill:#709480;}
	.st15{fill:#B4C6B6;}
	.st16{fill:#F1EADF;}
	.st17{fill:#B7C9B9;}
	.st18{fill:#B1432D;}
	.st19{fill:#70927F;}
	.st20{fill:#6C16B7;}
	.st21{fill:#E3E3E3;}
	.st22{fill:#A5BBAA;}
	.st23{fill:none;stroke:#F3F5F4;stroke-linecap:round;stroke-linejoin:round;stroke-miterlimit:10;}
	.st24{fill:#D1CEC7;}
	.st25{fill:#7B46C1;}
	.st26{fill:#E8DFCF;}
	.st27{fill:#260966;}
	.st28{fill:#3D0E7A;stroke:#FFFFFF;stroke-miterlimit:10;}
	.st29{fill:#221D28;}
	.st30{fill:#F3F5F4;}
	.st31{fill:#C6A6F4;}
	.st32{fill:#F3F5F4;stroke:#70927F;stroke-width:0.25;stroke-miterlimit:10;}
	.st33{fill:none;stroke:#F9F9F9;stroke-miterlimit:10;}
	.st34{fill:none;stroke:#FFFFFF;stroke-width:3;stroke-linecap:round;stroke-miterlimit:10;stroke-dasharray:0,6,0,0;}
</style>
<g id="BACKGROUND">
	<path class="st0" d="M33.64,233.86c0-57.17,72.9-179.34,176.58-162.81c74.51,11.88,43.56,94.4,181.75,125.14
		c107.61,23.94,76.76,177.06-74.36,185.37C149.97,390.77,33.64,341.04,33.64,233.86z"/>
	<path class="st1" d="M391.92,272.84c-48.05,39.39-15.68,106.99,3.26,100.74c16.91-5.58-23.98-94.26-84.39-87.26
		c-99.46,11.53-127.48,57.51-195.25,39.53c-68.25-18.11-81.5-93.88-15.25-137.13c66.02-43.09-38.98-116.83-47.24-93.04
		c-4.71,13.57,47.41,46.87,84.6,15.19s86.44-35.74,117.37,21.9s94.05,23.51,134.36,15.58C429.68,140.42,495.19,188.18,391.92,272.84
		z"/>
</g>
<g id="OBJECTS">
	<g>
		<rect x="152.13" y="359.46" class="st2" width="55.99" height="8.22"/>
		<polygon class="st3" points="229.51,408.02 222.54,408.02 189.7,316.54 196.67,316.54 		"/>
		<polygon class="st3" points="173.28,408.02 180.25,408.02 188.46,316.54 181.49,316.54 		"/>
		<polygon class="st3" points="132.23,408.02 139.21,408.02 172.04,316.54 165.07,316.54 		"/>
	</g>
	<g>
		<path class="st4" d="M198.94,251.83h-57.88c-1.23,0-2.23,1-2.23,2.23v59.75c0,1.96,1.59,3.55,3.55,3.55h61.98v-60.11
			C204.36,254.25,201.94,251.83,198.94,251.83z"/>
		<path class="st4" d="M222.29,326.09h-54.94v-8.73h54.94c2.41,0,4.36,1.95,4.36,4.36l0,0C226.66,324.14,224.7,326.09,222.29,326.09
			z"/>
		<path class="st5" d="M143.54,307.99v-52.46c0-2.04-1.65-3.69-3.69-3.69l0,0c-2.04,0-3.69,1.65-3.69,3.69v53.15
			c0,9.62,7.8,17.41,17.41,17.41h12.79c2.41,0,4.36-1.95,4.36-4.36l0,0c0-2.41-1.95-4.36-4.36-4.36h-13.44
			C147.74,317.36,143.54,313.17,143.54,307.99z"/>
	</g>
	<path class="st6" d="M202.8,316.54h-29.44c-13.77,0-23.56-13.41-19.37-26.53l4.86-15.21l43.18-5.22L202.8,316.54z"/>
	<g>
		<polygon class="st7" points="207.19,212.86 219.6,257.07 207.19,257.07 194.14,234.97 		"/>
		<g>
			<path class="st8" d="M219.03,255.04l31.83,6.16l-0.86,2.65c0,0-28.25,6.73-42.81-6.78L219.03,255.04z"/>
			<g>
				<g>
					<path class="st8" d="M250.86,261.2l13.69-1.24l-3.79,3.42c-3.01,2.71-7.52,2.91-10.76,0.48l0,0L250.86,261.2z"/>
				</g>
				<path class="st8" d="M264.56,259.95l2.49,5.59c0,0-3.61,0.82-3.55-4.64L264.56,259.95z"/>
				<path class="st8" d="M261.53,260.68l2.25,5.91C263.78,266.59,259.61,267.05,261.53,260.68z"/>
				<path class="st8" d="M264.56,259.95l4.65,3.68c0,0-3.14,1.66-4.98-2.96L264.56,259.95z"/>
			</g>
		</g>
	</g>
	<rect x="200.12" y="263.93" class="st9" width="57.82" height="4.11"/>
	<path class="st9" d="M207.19,212.86l-13.73-5.54h-16.21l-20.73,6.16l9.32,39.38l-8.5,21.25h40.14l-3.08-22.24l0.13-0.39
		c0.74-2.24,2.39-4.02,4.5-5.09c3.59-1.81,5.67-4.24,5.96-6.83c0.13-1.15,0.03-2.47-0.23-3.87c-1.17-6.31-0.85-12.81,1.15-18.92
		L207.19,212.86z"/>
	<path class="st7" d="M199.75,247.6c2.24-1.13,4.23-3.58,4.85-6.51c0,0-4.92,4.42-21.99,2.83c-19.69-1.83-7.41,12.72-14.44,30.19
		h29.31l-3.08-22.24l0.13-0.39C195.27,249.24,197.65,248.66,199.75,247.6z"/>
	<polygon class="st10" points="190.96,218.17 177.24,207.32 184.51,192.61 196.84,192.61 	"/>
	<polygon class="st8" points="193.84,205.65 187.13,197.28 196.84,192.61 	"/>
	<path class="st11" d="M183.82,162.4c0,0,3.22-2.65,7.25-2.65c3.52,0,12.55,3.71,15.91,12.2c3.36,8.48,4.63,15.66,1.27,25.28
		l-14.83-4.62L183.82,162.4z"/>
	<path class="st10" d="M206.71,183.76c0.68,7.65-1.84,17.02-9.49,17.69s-19.06-8.42-19.73-16.06s-1.34-20.35,9.03-21.27
		C201.59,162.79,206.03,176.12,206.71,183.76z"/>
	<path class="st12" d="M200.67,177.61c0,0,2.13-1.11,3.85,0.38"/>
	<path class="st11" d="M176.52,184.19c0,0,17.99-0.2,21.96-15.91c0,0,2.74,0.47,6.51,4.71c0,0-1.81-9.28-16.8-9.28
		C172.9,163.71,176.52,184.19,176.52,184.19z"/>
	<path class="st12" d="M198.2,167.1c0,0,2.96,12.23-16.23,16.31"/>
	<path class="st11" d="M183.82,181.35c0,0-2.96,9.35,1.5,18.23c0,0-14.62,1.91-24.26-8.88c-0.24-9.74,4.63-19.2,10.75-25.49
		c5.12-5.26,19.66-6.98,23.35,3.07C195.16,168.28,185.14,167.99,183.82,181.35z"/>
	<path class="st12" d="M209.68,197.88c0,0,6.82-19.08-8.07-31.87"/>
	<path class="st12" d="M159.56,189.29c0,0,1.49-29.53,26.84-27.36"/>
	<path class="st9" d="M201.9,190.7c0,0-3.56,0.35-8.84,0c0,0,2.69,3.3,6.67,2.96C200.64,193.58,201.9,190.7,201.9,190.7z"/>
	<ellipse class="st11" cx="193.06" cy="183.45" rx="1.08" ry="1.95"/>
	<ellipse class="st11" cx="202.68" cy="182.25" rx="1.08" ry="1.95"/>
	<path class="st13" d="M199.28,183.45c0,0,0.82,3.26,4.66,3.01C203.94,186.46,199.08,192.68,199.28,183.45z"/>
	
		<ellipse transform="matrix(0.9354 -0.3537 0.3537 0.9354 -54.7155 75.6888)" class="st10" cx="179.71" cy="187.53" rx="4.45" ry="5.73"/>
	<g>
		<g>
			<rect x="177.08" y="171.8" class="st14" width="2.17" height="11.61"/>
			<rect x="175.63" y="171.8" class="st15" width="2.17" height="11.61"/>
			<path class="st14" d="M180.48,174.42v-5.62c0-2.4,1.42-4.79,3.48-6.03c1.08-0.65,4.12-2.55,4.12-2.55s-5.28,0-7.63,0.91
				l-0.62,0.24c-2.48,0.95-4.12,3.34-4.12,6v7.06H180.48z"/>
			<path class="st15" d="M179.04,174.42v-5.62c0-2.4,1.34-4.6,3.48-5.71l5.57-2.87l-1.7-0.14c-2.51-0.21-5.03,0.15-7.38,1.05
				l-0.62,0.24c-2.48,0.95-4.12,3.34-4.12,6v7.06H179.04z"/>
		</g>
		<g>
			<circle class="st15" cx="177.68" cy="186.09" r="6.14"/>
			<circle class="st16" cx="176.47" cy="186.09" r="6.14"/>
			<circle class="st15" cx="176.47" cy="186.09" r="3.85"/>
			<circle class="st16" cx="176.47" cy="186.09" r="1.75"/>
		</g>
		<g>
			<polygon class="st16" points="198.31,198.38 183.7,196.7 176.07,186.39 176.88,185.79 184.24,195.76 198.43,197.39 			"/>
		</g>
		<path class="st15" d="M198.63,198.89h-3.59c-0.36,0-0.64-0.29-0.64-0.64v-1.41c0-0.36,0.29-0.64,0.64-0.64h3.59
			c0.36,0,0.64,0.29,0.64,0.64v1.41C199.28,198.6,198.99,198.89,198.63,198.89z"/>
	</g>
	<polygon class="st7" points="166.88,237.2 164.08,245.44 162.42,239.74 	"/>
	<polygon class="st9" points="156.52,213.48 138.83,257.6 153.44,257.6 166.88,237.2 	"/>
	<path class="st17" d="M234.43,268.04h-12.67c0-3.5,2.84-6.34,6.34-6.34C231.59,261.7,234.43,264.54,234.43,268.04z"/>
	<g>
		<path class="st18" d="M155.53,254.43l61.51,6.77l-0.86,2.65c0,0-48,16.4-77.34-6.25L155.53,254.43z"/>
		<g>
			<g>
				<path class="st18" d="M217.04,261.2l13.69-1.24l-3.79,3.42c-3.01,2.71-7.52,2.91-10.76,0.48h0L217.04,261.2z"/>
			</g>
			<path class="st18" d="M230.73,259.95l2.49,5.59c0,0-3.61,0.82-3.55-4.64L230.73,259.95z"/>
			<path class="st18" d="M227.7,260.68l2.25,5.91C229.96,266.59,225.79,267.05,227.7,260.68z"/>
			<path class="st18" d="M230.73,259.95l4.65,3.68c0,0-3.14,1.66-4.98-2.96L230.73,259.95z"/>
		</g>
	</g>
	<g>
		<path class="st19" d="M287.71,250.1h-56.34c-3.53,0-6.33-2.96-6.13-6.49l2.2-36.59c0.18-3.25,2.87-5.8,6.13-5.8h56.34
			c3.53,0,6.33,2.96,6.13,6.49l-2.2,36.59C293.66,247.56,290.97,250.1,287.71,250.1z"/>
		<path class="st20" d="M291.24,250.1H234.9c-3.53,0-6.33-2.96-6.13-6.49l2.2-36.59c0.18-3.25,2.87-5.8,6.13-5.8h56.34
			c3.53,0,6.33,2.96,6.13,6.49l-2.2,36.59C297.19,247.56,294.5,250.1,291.24,250.1z"/>
		<g>
			<g>
				<path class="st19" d="M271.68,236.27h-17.58l7.38,26.99c0.24,0.89-0.42,1.76-1.34,1.76h-17.15v3.08h19.79h11.74
					c2.94,0,5.08-2.8,4.31-5.64L271.68,236.27z M270.33,258.41c-2.2,0-3.98-1.78-3.98-3.98s1.78-3.98,3.98-3.98
					c2.2,0,3.98,1.78,3.98,3.98S272.52,258.41,270.33,258.41z"/>
				<g>
					<path class="st19" d="M268.51,225.69h-10.07c-2.4,0-4.35,1.95-4.35,4.35v6.24h18.76v-6.24
						C272.86,227.63,270.91,225.69,268.51,225.69z"/>
					<path class="st21" d="M271.4,225.69h-10.07c-2.4,0-4.35,1.95-4.35,4.35v6.24h18.76v-6.24
						C275.75,227.63,273.8,225.69,271.4,225.69z"/>
					<path class="st21" d="M282.87,262.22l-7.07-25.95h-18.82l1.06,3.89h-0.01l6.64,24.37c0.47,1.74-0.77,3.44-2.54,3.57h0.63h2.89
						h8.78h3.94C281.45,268.1,283.68,265.18,282.87,262.22z M271.77,258.41c-2.2,0-3.98-1.78-3.98-3.98s1.78-3.98,3.98-3.98
						c2.2,0,3.98,1.78,3.98,3.98S273.97,258.41,271.77,258.41z"/>
					<path class="st22" d="M271.4,225.69h-10.07c-2.4,0-4.35,1.95-4.35,4.35v6.24h18.76v-6.24
						C275.75,227.63,273.8,225.69,271.4,225.69z"/>
				</g>
			</g>
			<path class="st20" d="M282.87,262.22l-7.07-25.95h-18.82l1.06,3.89h-0.01l6.64,24.37c0.47,1.74-0.77,3.44-2.54,3.57h0.63h2.89
				h8.78h3.94C281.45,268.1,283.68,265.18,282.87,262.22z M271.77,258.41c-2.2,0-3.98-1.78-3.98-3.98s1.78-3.98,3.98-3.98
				c2.2,0,3.98,1.78,3.98,3.98S273.97,258.41,271.77,258.41z"/>
			<path class="st23" d="M282.87,262.22l-7.07-25.95l-0.06,0v-6.24c0-2.4-1.95-4.35-4.35-4.35h-10.07"/>
			<path class="st23" d="M275.81,236.27l7.07,25.95c0.81,2.96-1.42,5.88-4.49,5.88"/>
		</g>
		<g>
			<g>
				<path class="st24" d="M236.26,233.86c-0.01,0-0.02,0-0.03,0c-0.24-0.01-0.43-0.22-0.42-0.47l1.21-21.63
					c0.01-0.24,0.22-0.44,0.47-0.42c0.24,0.01,0.43,0.22,0.42,0.47l-1.21,21.63C236.69,233.68,236.49,233.86,236.26,233.86z"/>
			</g>
			<g>
				<path class="st24" d="M239.14,233.86c-0.01,0-0.02,0-0.03,0c-0.24-0.01-0.43-0.22-0.42-0.47l1.21-21.63
					c0.01-0.24,0.22-0.44,0.47-0.42c0.24,0.01,0.43,0.22,0.42,0.47l-1.21,21.63C239.57,233.68,239.38,233.86,239.14,233.86z"/>
			</g>
			<g>
				<path class="st24" d="M242.03,233.86c-0.01,0-0.02,0-0.03,0c-0.24-0.01-0.43-0.22-0.42-0.47l1.21-21.63
					c0.01-0.24,0.21-0.44,0.47-0.42c0.24,0.01,0.43,0.22,0.42,0.47l-1.21,21.63C242.45,233.68,242.26,233.86,242.03,233.86z"/>
			</g>
			<g>
				<path class="st24" d="M244.91,233.86c-0.01,0-0.02,0-0.03,0c-0.24-0.01-0.43-0.22-0.42-0.47l1.21-21.63
					c0.01-0.24,0.22-0.44,0.47-0.42c0.24,0.01,0.43,0.22,0.42,0.47l-1.21,21.63C245.34,233.68,245.14,233.86,244.91,233.86z"/>
			</g>
			<g>
				<path class="st24" d="M247.79,233.86c-0.01,0-0.02,0-0.03,0c-0.24-0.01-0.43-0.22-0.42-0.47l1.21-21.63
					c0.01-0.24,0.22-0.44,0.47-0.42c0.24,0.01,0.43,0.22,0.42,0.47l-1.21,21.63C248.22,233.68,248.02,233.86,247.79,233.86z"/>
			</g>
		</g>
		<g>
			<g>
				<path class="st24" d="M281.24,233.86c-0.01,0-0.02,0-0.03,0c-0.24-0.01-0.43-0.22-0.42-0.47l1.21-21.63
					c0.01-0.24,0.22-0.44,0.47-0.42c0.24,0.01,0.43,0.22,0.42,0.47l-1.21,21.63C281.67,233.68,281.47,233.86,281.24,233.86z"/>
			</g>
			<g>
				<path class="st24" d="M284.12,233.86c-0.01,0-0.02,0-0.03,0c-0.24-0.01-0.43-0.22-0.42-0.47l1.21-21.63
					c0.01-0.24,0.22-0.44,0.47-0.42c0.24,0.01,0.43,0.22,0.42,0.47l-1.21,21.63C284.55,233.68,284.35,233.86,284.12,233.86z"/>
			</g>
			<g>
				<path class="st24" d="M287,233.86c-0.01,0-0.02,0-0.03,0c-0.24-0.01-0.43-0.22-0.42-0.47l1.21-21.63
					c0.01-0.24,0.22-0.44,0.47-0.42c0.24,0.01,0.43,0.22,0.42,0.47l-1.21,21.63C287.43,233.68,287.24,233.86,287,233.86z"/>
			</g>
			<g>
				<path class="st24" d="M289.89,233.86c-0.01,0-0.02,0-0.03,0c-0.24-0.01-0.43-0.22-0.42-0.47l1.21-21.63
					c0.01-0.24,0.22-0.44,0.47-0.42c0.24,0.01,0.43,0.22,0.42,0.47l-1.21,21.63C290.32,233.68,290.12,233.86,289.89,233.86z"/>
			</g>
			<g>
				<path class="st24" d="M292.77,233.86c-0.01,0-0.02,0-0.03,0c-0.24-0.01-0.43-0.22-0.42-0.47l1.21-21.63
					c0.01-0.24,0.23-0.44,0.47-0.42c0.24,0.01,0.43,0.22,0.42,0.47l-1.21,21.63C293.2,233.68,293,233.86,292.77,233.86z"/>
			</g>
		</g>
	</g>
	<path class="st6" d="M230.67,285.17h-19.69l-9.71,105.17h3.04c22.84-61.11,29.4-88.6,31.28-99.31
		C236.14,287.97,233.78,285.17,230.67,285.17z"/>
	<path class="st25" d="M201.64,386.33c0,0,21.81-56.21,16.19-94.19c-0.36-2.42-6.85-6.98-6.85-6.98L201.64,386.33z"/>
	<path class="st6" d="M211.61,285.17H194.9l-39.25,101.16l2.46,4.01c28.29-43.48,54.12-82.07,59.47-96.62
		C219.09,289.57,216.03,285.17,211.61,285.17z"/>
	<path class="st25" d="M188.46,302.72c-9.56,2.34-19.62-0.98-21.58-6.97c-2.23-6.79,3.45-10.58,3.45-10.58l-4.19-11.25l-7.3,0.88
		l-4.86,15.21c-4.19,13.12,5.6,26.53,19.37,26.53h9.37l-27.08,69.79C196.26,321.69,188.46,302.72,188.46,302.72z"/>
	<polygon class="st19" points="158.38,276.27 202.09,276.27 202.28,285.17 155.53,285.17 	"/>
	<g>
		<polygon class="st18" points="204.32,390.34 204.32,402.87 212.16,403.73 201.91,403.73 201.27,396.06 197.66,391.31 
			201.64,386.33 		"/>
		<path class="st26" d="M212.16,403.73l-1.22,4.29h-8.1c-1.39,0-2.52-1.13-2.52-2.52v-8.45l-4.14-5.38l5.47-5.33l0.27,17.39H212.16z
			"/>
		<polygon class="st26" points="196.18,391.66 196.18,408.02 199.02,393.48 		"/>
	</g>
	<g>
		<polygon class="st18" points="158.31,390.34 158.31,402.87 166.16,403.73 155.91,403.73 155.27,396.06 151.65,391.31 
			155.64,386.33 		"/>
		<path class="st26" d="M166.16,403.73l-1.22,4.29h-8.1c-1.39,0-2.52-1.13-2.52-2.52v-8.45l-4.14-5.38l5.47-5.33l0.27,17.39H166.16z
			"/>
		<polygon class="st26" points="150.17,391.66 150.17,408.02 153.02,393.48 		"/>
	</g>
	<g>
		<path class="st26" d="M148.27,408.02h-25.6c-4.05,0-7.34-3.29-7.34-7.34V276.27h40.28v124.41
			C155.61,404.73,152.32,408.02,148.27,408.02z"/>
		<path class="st20" d="M142.52,408.02h-25.6c-4.05,0-7.34-3.29-7.34-7.34V276.27h40.28v124.41
			C149.86,404.73,146.58,408.02,142.52,408.02z"/>
	</g>
	<g>
		<path class="st26" d="M304.29,408.02h-25.6c-4.05,0-7.34-3.29-7.34-7.34V276.27h40.28v124.41
			C311.63,404.73,308.35,408.02,304.29,408.02z"/>
		<path class="st20" d="M298.55,408.02h-25.6c-4.05,0-7.34-3.29-7.34-7.34V276.27h40.28v124.41
			C305.89,404.73,302.6,408.02,298.55,408.02z"/>
	</g>
	<g>
		<path class="st20" d="M97.59,280.72h204.32c2.57,0,4.65-2.08,4.65-4.65v-3.38c0-2.57-2.08-4.65-4.65-4.65H97.59
			c-2.57,0-4.65,2.08-4.65,4.65v3.38C92.94,278.64,95.02,280.72,97.59,280.72z"/>
		<path class="st26" d="M190.14,280.72h142.57c2.57,0,4.65-2.08,4.65-4.65v-3.38c0-2.57-2.08-4.65-4.65-4.65H190.14
			c-2.57,0-4.65,2.08-4.65,4.65v3.38C185.48,278.64,187.57,280.72,190.14,280.72z"/>
	</g>
	<rect x="109.59" y="280.72" class="st19" width="40.28" height="7.42"/>
	<rect x="265.61" y="280.72" class="st27" width="40.28" height="7.42"/>
	<g>
		<path class="st28" d="M319.31,145.98l-10.28-8.23h-65.1c-4.34,0-7.85-3.52-7.85-7.85v-10.77c0-4.34,3.52-7.85,7.85-7.85h67.53
			c4.34,0,7.85,3.52,7.85,7.85V145.98z"/>
		<g>
			<line class="st28" x1="245.36" y1="117.82" x2="290.95" y2="117.82"/>
			<line class="st28" x1="245.36" y1="123.88" x2="290.95" y2="123.88"/>
			<line class="st28" x1="245.36" y1="129.93" x2="290.95" y2="129.93"/>
		</g>
	</g>
	<g>
		<path class="st28" d="M218.23,182.8l10.28-8.23h65.1c4.34,0,7.85-3.52,7.85-7.85v-10.77c0-4.34-3.52-7.85-7.85-7.85h-67.53
			c-4.34,0-7.85,3.52-7.85,7.85V182.8z"/>
		<g>
			<line class="st28" x1="292.17" y1="154.64" x2="246.58" y2="154.64"/>
			<line class="st28" x1="292.17" y1="160.7" x2="246.58" y2="160.7"/>
			<line class="st28" x1="292.17" y1="166.75" x2="246.58" y2="166.75"/>
		</g>
	</g>
	<g>
		<g>
			<g>
				<g>
					<path class="st29" d="M102.49,316.84L102.49,316.84c-5.8,0-10.51,4.7-10.51,10.51v67.87c0,1.52,1.23,2.75,2.75,2.75h15.52
						c1.52,0,2.75-1.23,2.75-2.75v-67.87C112.99,321.54,108.29,316.84,102.49,316.84z"/>
				</g>
				<g>
					<path class="st29" d="M111.78,358.38h-6.92c-2.86,0-5.18-2.32-5.18-5.18s2.32-5.18,5.18-5.18h6.92c3.85,0,6.98-3.13,6.98-6.98
						v-7.25c0-2.86,2.32-5.18,5.18-5.18c2.86,0,5.18,2.32,5.18,5.18v7.25C129.12,350.6,121.35,358.38,111.78,358.38z"/>
				</g>
				<g>
					<path class="st29" d="M100.81,372.03h-7.25c-9.56,0-17.34-7.78-17.34-17.34v-6.92c0-2.86,2.32-5.18,5.18-5.18
						s5.18,2.32,5.18,5.18v6.92c0,3.85,3.13,6.98,6.98,6.98h7.25c2.86,0,5.18,2.32,5.18,5.18S103.67,372.03,100.81,372.03z"/>
				</g>
			</g>
			<g>
				<g>
					<rect x="96.5" y="328.63" class="st30" width="0.86" height="3.6"/>
				</g>
				<g>
					<rect x="107.51" y="323.23" class="st30" width="0.86" height="3.6"/>
				</g>
				<g>
					<rect x="101.38" y="344.17" class="st30" width="0.86" height="3.6"/>
				</g>
				<g>
					<rect x="104.43" y="333.26" class="st30" width="0.86" height="3.6"/>
				</g>
				<g>
					<rect x="109.15" y="364.09" class="st30" width="0.86" height="3.6"/>
				</g>
				<g>
					<rect x="120.92" y="331.99" class="st30" width="0.86" height="3.6"/>
				</g>
				<g>
					<rect x="96.5" y="355.6" class="st30" width="0.86" height="3.6"/>
				</g>
				<g>
					<rect x="97.4" y="370.99" class="st30" width="0.86" height="3.6"/>
				</g>
				<g>
					<rect x="105.51" y="354.77" class="st30" width="0.86" height="3.6"/>
				</g>
				<g>
					<rect x="79.25" y="355.51" class="st30" width="0.86" height="3.6"/>
				</g>
				<g>
					<rect x="83.39" y="348.78" class="st30" width="0.86" height="3.6"/>
				</g>
				<g>
					<rect x="85.29" y="359.11" class="st30" width="0.86" height="3.6"/>
				</g>
				<g>
					<rect x="109.91" y="341.04" class="st30" width="0.86" height="3.6"/>
				</g>
				<g>
					<rect x="122.72" y="345.97" class="st30" width="0.86" height="3.6"/>
				</g>
			</g>
		</g>
		<g>
			<path class="st31" d="M120.29,378.03H85.05c-0.95,0-1.69,0.84-1.56,1.78l3.65,27.33c0.37,2.79,2.76,4.88,5.57,4.88h20.52
				c2.86,0,5.27-2.15,5.59-5l3.03-27.24C121.96,378.84,121.23,378.03,120.29,378.03z"/>
			<polygon class="st27" points="120.22,394.5 120.83,388.96 84.72,388.96 85.46,394.5 			"/>
		</g>
	</g>
	<circle class="st32" cx="85.39" cy="237.2" r="8.74"/>
	<circle class="st33" cx="439.91" cy="167.1" r="37.09"/>
	<circle class="st32" cx="358.12" cy="257.6" r="8.74"/>
	<circle class="st32" cx="348.13" cy="313.07" r="4.37"/>
	<polygon class="st32" points="174.68,137.67 162.52,145.07 162.52,130.27 	"/>
	<polygon class="st32" points="408.89,308.7 396.73,316.1 396.73,301.3 	"/>
	<g>
		<path class="st28" d="M422.25,281.69h-57.73c-3.53,0-6.39-2.86-6.39-6.39v-11.42c0-3.53,2.86-6.39,6.39-6.39h57.73
			c3.53,0,6.39,2.86,6.39,6.39v11.42C428.64,278.83,425.78,281.69,422.25,281.69z"/>
		<g>
			<line class="st28" x1="416.18" y1="263.53" x2="370.59" y2="263.53"/>
			<line class="st28" x1="416.18" y1="269.59" x2="370.59" y2="269.59"/>
			<line class="st28" x1="416.18" y1="275.64" x2="370.59" y2="275.64"/>
		</g>
	</g>
	<g>
		<path class="st28" d="M137.24,204.09H79.51c-3.53,0-6.39-2.86-6.39-6.39v-11.42c0-3.53,2.86-6.39,6.39-6.39h57.73
			c3.53,0,6.39,2.86,6.39,6.39v11.42C143.63,201.23,140.77,204.09,137.24,204.09z"/>
		<g>
			<line class="st28" x1="131.17" y1="185.93" x2="85.58" y2="185.93"/>
			<line class="st28" x1="131.17" y1="191.99" x2="85.58" y2="191.99"/>
			<line class="st28" x1="131.17" y1="198.04" x2="85.58" y2="198.04"/>
		</g>
	</g>
	<g>
		<line class="st34" x1="352.5" y1="75.51" x2="418.32" y2="75.51"/>
		<line class="st34" x1="352.5" y1="80.6" x2="418.32" y2="80.6"/>
		<line class="st34" x1="352.5" y1="85.68" x2="418.32" y2="85.68"/>
		<line class="st34" x1="352.5" y1="90.77" x2="418.32" y2="90.77"/>
		<line class="st34" x1="352.5" y1="95.85" x2="418.32" y2="95.85"/>
		<line class="st34" x1="352.5" y1="100.93" x2="418.32" y2="100.93"/>
		<line class="st34" x1="352.5" y1="106.02" x2="418.32" y2="106.02"/>
		<line class="st34" x1="352.5" y1="111.1" x2="418.32" y2="111.1"/>
		<line class="st34" x1="352.5" y1="116.19" x2="418.32" y2="116.19"/>
		<line class="st34" x1="352.5" y1="121.27" x2="418.32" y2="121.27"/>
	</g>
</g>
<g id="DESIGNED_BY_FREEPIK">
</g>
</svg>
