<svg id="Layer_1" data-name="Layer 1" xmlns="http://www.w3.org/2000/svg" viewBox="0 0 1500 1500"><defs><style>.cls-1{fill:#00ce7f;}.cls-2{fill:#fe4d12;}.cls-3{fill:#b559fe;}.cls-4{fill:#fe7361;}.cls-5{fill:#00bbfe;}.cls-6{fill:#fdfefe;}.cls-7{fill:#001834;}.cls-8{fill:#000017;}.cls-9{fill:#00a9fe;}.cls-10{fill:#00001b;}.cls-11{fill:#001;}.cls-12{fill:#300;}.cls-13{fill:#1b0000;}.cls-14{fill:#fe9900;}.cls-15{fill:#fe9a00;}.cls-16{fill:#fd9900;}.cls-17{fill:#100;}.cls-18{fill:#470137;}.cls-19{fill:#fe61f5;}.cls-20{fill:#067dcc;}.cls-21{fill:#4eb0f3;}</style></defs><path class="cls-1" d="M471.66,730.27c.14,12.61,1,25.27-.38,37.82-1.71,15.19-10.69,24.62-25.15,29-.79.24-1.89-.14-2.23,1.07H431.22c-.45-1.28-1.75-1.06-2.65-1.36-16.38-5.33-25.46-18.46-24.54-35.6.77-14.53,12.07-26.9,27.68-30.34.59-.13,1.15-.36,1.73-.55,1.33-1.56,3.2-1.48,5-1.5q14.11-.12,28.24,0C468.42,728.85,470.28,728.77,471.66,730.27Z"/><path class="cls-2" d="M433.34,662.25c-11.8-2.16-21-8-26.46-19-10.82-21.85,4.48-47.91,28.88-48.85,12-.46,24.1,0,36.15.07,1.47,1.4,1.5,3.25,1.5,5.06q.09,29,0,58a7.49,7.49,0,0,1-1.2,4.75c-1.58,1.44-3.58,1.41-5.51,1.42q-13.95.1-27.89,0C436.88,663.71,434.85,663.87,433.34,662.25Z"/><path class="cls-3" d="M433.34,662.25l38.46-.08.65.57c1.65,3.55.77,7.32.92,11,.22,5.49-.27,11,0,16.5-.31,3.94,1.1,8.07-1.29,11.79q-.19,14.12-.38,28.24l-38.23.07a19.15,19.15,0,0,0-2.5-.9A33.44,33.44,0,0,1,404,696.09c0-16.4,11.1-29.77,27.29-33A12.92,12.92,0,0,0,433.34,662.25Z"/><path class="cls-4" d="M471.8,662.17q0-33.82.11-67.65c13.25.05,26.57-1.33,39.72.68,15.76,2.42,27.29,16.42,27.44,32.35.15,16.78-10.93,30.82-26.77,33.92a21.36,21.36,0,0,0-2.53.83c-2.81,2.17-6.07,1.15-9.17,1.32-7.54-.11-15.08.28-22.62.12-2.11,0-4.26.11-6.1-1.25Z"/><path class="cls-5" d="M500.84,662.45l8.93-.15c10.77,2.2,19.83,7.08,25.27,17.05,6.83,12.5,6.47,25.08-1.82,36.59S513,732.35,498.79,729.33c-13.55-2.87-22.13-11.44-25.91-24.78-.24-.85-.56-1.68-.84-2.52,0-3.84,0-7.67,0-11.51,1.15-12.58,8.22-20.73,19.25-26.06C494.36,663,497.65,663.07,500.84,662.45Z"/><path class="cls-6" d="M500.84,662.45c-15.47,3.33-25,12.73-28.81,28.07q-.07-14-.14-28Z"/><path class="cls-7" d="M1084.82,751.3c-3.3,18.62-16.17,29.89-35,30q-61.9.22-123.82,0c-18.78-.07-31.66-11.35-34.95-30a10.09,10.09,0,0,0,.37-4V627.08a10.09,10.09,0,0,0-.37-4c3.31-18.63,16.18-29.9,35-30q61.91-.21,123.83,0c18.77.07,31.65,11.36,34.94,30a10.12,10.12,0,0,0-.37,4q0,60.09,0,120.18A10.3,10.3,0,0,0,1084.82,751.3Z"/><path class="cls-8" d="M891.1,623.07c1.51,1.66.91,3.69.92,5.57q0,58.53,0,117.07c0,1.88.59,3.92-.92,5.57-.09-29.92-.23-59.84-.27-89.76C890.82,648.7,891,635.88,891.1,623.07Z"/><path class="cls-8" d="M1084.82,751.3c-1.5-1.66-.91-3.7-.91-5.58q0-58.53,0-117.07c0-1.87-.6-3.91.92-5.57.09,17.29.28,34.58.26,51.87C1085.08,700.4,1084.92,725.85,1084.82,751.3Z"/><path class="cls-9" d="M934.29,641.72c12-.65,24.06-1.93,36.1,0,15.94,2.52,25.76,13.61,25.49,28.94-.27,15.17-10.7,26.29-26.53,28.06a74.44,74.44,0,0,1-12.83.47c-3.82-.23-4.68,1.28-4.57,4.68.19,5.82-.17,11.66.13,17.47.2,3.93-1.31,5.15-5,4.84-4.25-.34-8.54-.36-12.8-.52-.87-1-.66-2.18-.66-3.33q0-38.64,0-77.29C933.59,643.89,933.37,642.68,934.29,641.72Z"/><path class="cls-9" d="M1004.35,708.18c7.16,2.29,14.07,5.61,21.91,4.85,2.88-.28,6.44.14,7.29-3.39,1-4.08-2.83-5-5.55-6.26-4.19-2-8.59-3.61-12.66-5.84-7.42-4.06-11.7-10.16-10.73-19,.86-7.83,7.38-14.65,15.86-16.74,7.72-1.9,15.41-1.1,23.12.34,3.84.72,5.36,2.67,4.83,6.42a11.2,11.2,0,0,0,0,1.16c-.13,2.89.85,6.79-.66,8.43-2.09,2.29-5.12-1.16-7.9-1.6-4.23-.68-8.43-1.55-12.74-1.14-2.38.23-4.8.61-5.32,3.53-.46,2.61,1.42,3.93,3.38,4.86,5.07,2.4,10.29,4.52,15.34,7,7.76,3.78,11.81,9.85,10.85,18.73s-6.19,14.1-14.3,16.48c-11.19,3.28-22.23,2.69-32.79-2.68A44.61,44.61,0,0,1,1004.35,708.18Z"/><path class="cls-10" d="M934.29,641.72q0,42,0,83.93c-1.93-1.44-1.24-3.54-1.24-5.38q-.06-36.6,0-73.2C933,645.24,932.3,643.13,934.29,641.72Z"/><path class="cls-11" d="M1004.35,708.18q0,7.58-.08,15.16A21.24,21.24,0,0,1,1004.35,708.18Z"/><path class="cls-7" d="M964.5,657.05c9.16,1.73,12.68,4.71,13.26,11.23.82,9.12-3.94,14.4-14,15.5-11.69,1.27-11.86,1.27-11.62-10.08.11-5.5-1.18-11.11.81-16.53A39.23,39.23,0,0,0,964.5,657.05Z"/><path class="cls-11" d="M964.5,657.05a15.4,15.4,0,0,1-11.5.12Z"/><path class="cls-12" d="M1184.08,780.14a33.13,33.13,0,0,1-30.41-33q-.43-59.87,0-119.73c.17-19.08,15.14-33.07,34.26-33.09q61.24-.07,122.5,0c19.51,0,34.28,14.44,34.36,33.94q.24,58.95,0,117.88c0,18.21-12.82,32.29-30.38,34a8.68,8.68,0,0,0-3.65-.32q-61.53,0-123.08,0A8.65,8.65,0,0,0,1184.08,780.14Z"/><path class="cls-13" d="M1184.08,780.14c1.46-1.31,3.24-.75,4.87-.75q60.32,0,120.63,0c1.63,0,3.41-.57,4.87.75-1.85.07-3.69.22-5.53.22H1189.61C1187.77,780.36,1185.93,780.21,1184.08,780.14Z"/><path class="cls-14" d="M1231.42,641.68c10.93,0,10.92,0,14.48,10.09,8.18,23.15,16.25,46.34,24.65,69.41,1.56,4.28.45,4.88-3.44,4.59-4.58-.33-10.13,1.26-13.54-.81s-3.89-8.05-4.92-12.46c-1.25-5.38-4.05-6.93-9.37-6.51a176.8,176.8,0,0,1-19.4.06c-2.42-.07-3.57.75-4.23,3-1.39,4.71-3.07,9.33-4.44,14-.57,2-1.56,2.72-3.59,2.65-3.69-.12-7.4-.17-11.09,0-3.09.15-3.67-.71-2.61-3.69,5.6-15.77,11.17-31.54,16.43-47.42,3.41-10.32,8.26-20.2,9.77-31.1.25-1.76,1.21-1.88,2.52-1.87C1225.57,641.69,1228.49,641.68,1231.42,641.68Z"/><path class="cls-15" d="M1297.82,694c0,9.24-.12,18.48.06,27.71.06,3.09-.57,4.52-4,4.23a89.58,89.58,0,0,0-10.62,0c-2.3.08-3.31-.61-3.3-3.12q.12-28.86,0-57.74c0-2.56,1.09-3.19,3.36-3,4.7.38,10.71-2,13.75,1,2.62,2.56.63,8.49.71,12.93C1297.9,682,1297.82,688,1297.82,694Z"/><path class="cls-16" d="M1298.89,645.39c0,6.23-3.91,10.12-10.06,10-5.91-.07-9.68-3.94-9.69-9.95a9.94,9.94,0,0,1,10.14-10.23C1295.05,635.33,1298.89,639.4,1298.89,645.39Z"/><path class="cls-12" d="M1222.19,687.84l9.16-30.45c3.42,11.21,6.46,21.2,9.51,31.19-5.76,1.24-11.58.4-17.37.46C1222.89,689,1222.47,688.41,1222.19,687.84Z"/><path class="cls-17" d="M1222.19,687.84c6.16,1.82,12.44.57,18.67.74.56,1.39-.63,1-1.17,1-5.16,0-10.32,0-15.48,0C1223.07,689.63,1221.52,690,1222.19,687.84Z"/><path class="cls-18" d="M819,626.62V754c-.93,6.13-2.73,11.82-7,16.67a30,30,0,0,1-21,10.44H659.48c-4.56-1.22-9.36-1.35-13.51-4.27-9.5-6.68-14.07-15.62-14.05-27.18q.09-59.7,0-119.42c0-11.37,4.32-20.3,13.67-26.94,5.57-4,11.83-4.92,18.3-4.94,41.21-.08,82.43,0,123.65-.06,11.56,0,20.51,4.56,27.19,14C817.83,616.7,817.92,621.75,819,626.62Z"/><path class="cls-19" d="M791.79,681.25q0,19.71,0,39.42c0,1.71.12,3.13-2,3.89-11.44,4.14-23.09,6-35,2.69-10.94-3-18-10.28-20.29-21.44-2.73-13.12.15-24.74,10.62-33.8,7.1-6.14,15.7-8.28,24.79-8,3.74.1,4.19-1.06,4.06-4.23-.24-5.74.13-11.5-.14-17.24-.15-3.21,1-4.06,4-3.84a45.41,45.41,0,0,0,9,0c4-.5,4.67,1.31,4.62,4.83-.18,12.6-.07,25.2-.07,37.79Z"/><path class="cls-19" d="M660.5,645.51c5.71,0,11.18.12,16.65,0,2.3-.08,3.33.86,4.34,2.79,4.75,9.15,9.67,18.21,14.78,27.76,4.94-9.32,9.74-18.16,14.31-27.12,1.27-2.48,2.67-3.61,5.59-3.44,4.63.29,9.3.08,14,.08.66,1.89-.77,2.9-1.47,4.07-6.59,11-13.19,22-19.93,32.94-1.25,2-1.16,3.43.06,5.4,7.42,11.95,14.65,24,22,36,1.48,2.41,1.74,3.56-1.75,3.43-4.79-.19-9.59-.16-14.38,0-2.58.09-3.9-1-5-3.23-4.6-9-9.39-17.86-14.08-26.71-1.69,0-1.7,1.42-2.15,2.26-4.42,8.15-8.84,16.31-13.07,24.56-1.21,2.36-2.59,3.45-5.36,3.33-5-.23-10.06-.07-16-.07,3.65-6,6.94-11.4,10.22-16.81,4.26-7,8.41-14.07,12.8-21,1.43-2.25,1.55-3.89.12-6.25-6.85-11.33-13.49-22.79-20.18-34.22C661.36,648.21,660.39,647.32,660.5,645.51Z"/><path class="cls-18" d="M773.93,696.07c0,4.92,0,9.83,0,14.75,0,1.71-.28,2.69-2.38,2.93-11.53,1.35-19.52-4.8-20.05-15.62-.58-11.89,6.93-20,18.24-19.78,2.94.06,4.52.72,4.26,4.21C773.67,687,773.93,691.57,773.93,696.07Z"/><path class="cls-20" d="M167.83,673.41c14.4-13.38,28.67-26.9,43.79-39.49.6-.28,1.49-.74,1.85-.39,9,8.6,19.19,6,29.4,3.17,1.08-.29,2.12-.53,3,.53,2,5.38,1.24,10.88.75,16.37a9.29,9.29,0,0,1-3.71,5.25c-16.13,12-32,24.41-48.1,36.53a6.4,6.4,0,0,1-5.09-2.49c-3.92-5.48-10.3-7.67-15.17-11.83C172.38,678.43,168.69,677.15,167.83,673.41Z"/><path class="cls-21" d="M287.33,635.5l0,30.42c-1.14,12.75-.17,25.52-.53,38.28a1.82,1.82,0,0,1-1.16,1.8c-3.71.06-2.65-2.78-2.71-4.71-.13-4.73,0-9.46-.19-14.19.56,7.79-.52,15.68,1.18,23.42.4,1.83.11,4.64-1.91,5.17-2.7.7-3.43-2.18-4.08-4.1-1.34-4-4.28-5.27-8.11-5.37-5.49-.16-11,.12-16.48-.18-3.86-.21-5,1.73-5,5.17,0,4.82.15,9.66-.08,14.47-.12,2.54.21,5.43-2.89,6.77-1.5,0-2.12-.93-2.29-2.29-.21-21.68-.07-43.35-.07-65a19,19,0,0,1,.82-6.48c2.29-4.83,6-6.11,11.3-5.55,7,.74,14.08.06,21.12.31,3.25.12,6.47.4,6.77,4.58C281.35,649.94,279.8,641.92,287.33,635.5Z"/><path class="cls-20" d="M243.8,731.15l1.16,1c1.9,2.64,1.66,5.72,1.82,8.73a7.76,7.76,0,0,1-1.57,5.08,10.92,10.92,0,0,1-7,3.3c-10.25.16-20.51,2-30.78.14C197,741,187.24,731.83,177.57,722.58c-.36-6.22,1.49-8.79,7-9.46a65.42,65.42,0,0,1,7.28-.16c6.47-.05,13.36,1.28,17.81-5.47.43-.66,1.62-.56,2.5-.61,8,2.87,14.14,8.53,20.49,13.77C236.54,723.88,242.05,725.58,243.8,731.15Z"/><path class="cls-20" d="M213.19,708.21c-1.54,0-3.76-.23-4.15,1.27-1.79,6.92-7.15,5.25-11.83,5.31-2.86,0-5.78.38-8.56-.07-6.48-1.06-9.72,2-11.08,7.86l-10.49-8.44c-8.45-5.35-15.06-12.87-22.62-19.26-.54-4.46-4.54-6-7.37-8.45-2.65-2.25-5.38-4.34-7.32-7.27,2.48-2.62,5.78-3.34,9.52.34,8.84,8.68,18.44,4.71,28.05,3,2.58-.46,4.75-2.4,7.55-2.14,8.48,2.33,13.24,9.88,20.21,14.34.39-.22.92-.53,1.21-.34C202.44,698.37,208.56,702.38,213.19,708.21Z"/><path class="cls-21" d="M287.33,635.5c-5.15,8.15-3.39,17.44-4.42,26.76.46-6.66-3.16-7.19-8.25-7.13-8.08.08-16.23,1-24.25-.6-3-.63-3,2.87-5.08,3.39-1-.62-.92-1.41-.4-2.29q.06-9.42.1-18.85c-1.62-1.46-1.74-3.46-1.71-5.39.1-7.28.17-14.54-3.45-21.22,2.61-1.63,5.14-.71,7.54.43,11.1,5.3,22.21,10.58,33.22,16.06C284.18,628.43,287.62,630.65,287.33,635.5Z"/><path class="cls-20" d="M174.89,680.38c-3.86,3.79-8.95,4.73-13.91,5.14-3.83.31-7.26,1-10.39,3.52-.31-3.32-.47-2.88-2.57-3.07-2.62-.25-6.55,2.86-7.56-3.5-.39-2.48-6-5.48-10.69-3.31l-2.59-2c-14.33-11.53-12.11-13.44,3.15-25.92,3-2.46,6.09-1.34,9,.88,9.45,7.17,19,14.22,28.49,21.31C170.31,675.61,173.8,676.78,174.89,680.38Z"/><path class="cls-20" d="M144.46,694.88c4.39-2,4.74,2.89,6.77,4.43,5.74,4.35,11.46,8.94,15.85,14.83-9.11,6.91-18.3,13.72-27.3,20.76-4.21,3.3-7.74,3-11.72-.4-13.63-11.72-13.72-12.83-.37-24.84C133.23,704.68,138.87,699.8,144.46,694.88Z"/><path class="cls-21" d="M245.06,745.25c0-1.77.08-3.54.13-5.31.21,0,.56-.19.63-.11,7.13,8.58,16.95,5.86,26.06,6.31,4.06.2,8.86-1.14,11.13,3.3-.06-2-.47-4.67,2.86-5.83,2.42,3.09-.05,6.53.7,9.74-.84,4-3.81,5.89-7.17,7.52-10.8,5.23-21.53,10.63-32.4,15.71-2.19,1-4.78,2.64-7.4.55,3.33-5.25,3.72-11,3.69-17.09C243.27,755.1,241.88,749.86,245.06,745.25Z"/><path class="cls-20" d="M245.06,745.25c0,7.57-.08,15.15.13,22.72.12,4.42-1.33,7.56-5.59,9.16a5,5,0,0,1-4.12-1.69c-9.32-8.72-19.39-16.63-28.09-26a93.32,93.32,0,0,1,19.16-1.52C232.89,748.08,239.17,748.06,245.06,745.25Z"/><path class="cls-20" d="M239.87,610.17c4.3,2.7,5.78,6.5,5.34,11.57s-.15,10-.18,15c-8.15,7.06-17.77,3.44-26.79,3.34-3,0-3.16-5.35-6.62-6.2,7-6.57,13.94-13.19,21-19.67C234.68,612.37,236.55,609.91,239.87,610.17Z"/><path class="cls-21" d="M286.57,753.35c-2.81-3,.84-6.34-.39-9.45a5.53,5.53,0,0,1-1.81-4.09c-.54-10-.37-20.09,0-30.14a6.55,6.55,0,0,1,1.83-4.12h0c.37-.62.73-.59,1.1,0q.12,22.41.23,44.82C287.57,751.47,287.59,752.59,286.57,753.35Z"/><path class="cls-21" d="M287.33,705.56h-1.11c0-11.14,0-22.27,0-33.41,0-2.1-.7-4.41,1.11-6.22Z"/><path class="cls-6" d="M244.93,655.63c.14.76.27,1.53.4,2.29-.07,22.15-.11,44.29-.24,66.44,0,2.29.94,4.88-1.29,6.79l-30.61-22.94L195.1,694.72c.26-2.28,2.22-3.21,3.71-4.35Q221.82,672.93,244.93,655.63Z"/><path class="cls-21" d="M286.23,705.55q0,19.17-.05,38.35c-2.17,2.64-2.6,5.85-3.06,9.39-.43-4.23-2.95-5.48-6.6-5.43-5,.07-10.09-.41-15.06.11-7.32.77-13.13-.73-16.27-8-.08-2.59-.15-5.18-.23-7.77,3.31-6.44,1.23-13.31,1.32-19.95.09-5.92-.18-10.37,8-8.16,3.28.89,7,.15,10.52.15,11.67,0,11.67,0,17.21,12V685.89h1.54c0,4.85,0,9.71,0,14.56C283.61,702.55,283,705.08,286.23,705.55Z"/></svg>